<svg width="16" height="16" viewBox="0 0 16 16" fill="none" xmlns="http://www.w3.org/2000/svg">
<path d="M6.79922 1.59998C6.55096 1.59985 6.30877 1.67672 6.10603 1.82C5.90328 1.96328 5.74997 2.16591 5.66722 2.39998H4.39922C4.08096 2.39998 3.77573 2.5264 3.55069 2.75145C3.32565 2.97649 3.19922 3.28172 3.19922 3.59998V13.2C3.19922 13.5182 3.32565 13.8235 3.55069 14.0485C3.77573 14.2735 4.08096 14.4 4.39922 14.4H11.5992C11.9175 14.4 12.2227 14.2735 12.4477 14.0485C12.6728 13.8235 12.7992 13.5182 12.7992 13.2V3.59998C12.7992 3.28172 12.6728 2.97649 12.4477 2.75145C12.2227 2.5264 11.9175 2.39998 11.5992 2.39998H10.3312C10.2485 2.16591 10.0952 1.96328 9.89241 1.82C9.68967 1.67672 9.44748 1.59985 9.19922 1.59998H6.79922ZM6.39922 2.79998C6.39922 2.69389 6.44136 2.59215 6.51638 2.51713C6.59139 2.44212 6.69313 2.39998 6.79922 2.39998H9.19922C9.30531 2.39998 9.40705 2.44212 9.48206 2.51713C9.55708 2.59215 9.59922 2.69389 9.59922 2.79998C9.59922 2.90606 9.55708 3.0078 9.48206 3.08282C9.40705 3.15783 9.30531 3.19998 9.19922 3.19998H6.79922C6.69313 3.19998 6.59139 3.15783 6.51638 3.08282C6.44136 3.0078 6.39922 2.90606 6.39922 2.79998ZM7.48242 6.28318L6.08242 7.68318C6.00954 7.75596 5.9114 7.79783 5.80843 7.80007C5.70545 7.80231 5.60558 7.76473 5.52962 7.69518L4.92962 7.14718C4.88885 7.11233 4.8555 7.06963 4.83156 7.02164C4.80762 6.97364 4.79358 6.92132 4.79027 6.86779C4.78697 6.81425 4.79446 6.7606 4.8123 6.71002C4.83015 6.65944 4.85798 6.61297 4.89415 6.57337C4.93032 6.53376 4.97409 6.50184 5.02285 6.47949C5.0716 6.45714 5.12436 6.44483 5.17797 6.44328C5.23158 6.44173 5.28496 6.45098 5.33493 6.47048C5.38489 6.48998 5.43042 6.51932 5.46882 6.55678L5.78642 6.84638L6.91602 5.71678C6.95321 5.67959 6.99736 5.65008 7.04595 5.62996C7.09454 5.60983 7.14662 5.59947 7.19922 5.59947C7.25181 5.59947 7.30389 5.60983 7.35249 5.62996C7.40108 5.65008 7.44523 5.67959 7.48242 5.71678C7.51961 5.75397 7.54911 5.79812 7.56924 5.84671C7.58936 5.8953 7.59972 5.94738 7.59972 5.99998C7.59972 6.05257 7.58936 6.10465 7.56924 6.15324C7.54911 6.20183 7.51961 6.24599 7.48242 6.28318V6.28318ZM7.48242 9.71678C7.51967 9.75393 7.54922 9.79807 7.56939 9.84667C7.58955 9.89527 7.59993 9.94736 7.59993 9.99998C7.59993 10.0526 7.58955 10.1047 7.56939 10.1533C7.54922 10.2019 7.51967 10.246 7.48242 10.2832L6.08242 11.6832C6.00954 11.756 5.9114 11.7978 5.80843 11.8001C5.70545 11.8023 5.60558 11.7647 5.52962 11.6952L4.92962 11.1472C4.85531 11.0747 4.81209 10.9762 4.80909 10.8724C4.8061 10.7686 4.84356 10.6677 4.91357 10.5911C4.98357 10.5144 5.08064 10.468 5.18425 10.4616C5.28786 10.4552 5.38991 10.4893 5.46882 10.5568L5.78642 10.8472L6.91602 9.71678C6.95318 9.67953 6.99732 9.64997 7.04591 9.62981C7.09451 9.60964 7.1466 9.59926 7.19922 9.59926C7.25183 9.59926 7.30393 9.60964 7.35253 9.62981C7.40112 9.64997 7.44526 9.67953 7.48242 9.71678V9.71678ZM8.79922 10.4H10.7992C10.9053 10.4 11.007 10.4421 11.0821 10.5171C11.1571 10.5921 11.1992 10.6939 11.1992 10.8C11.1992 10.9061 11.1571 11.0078 11.0821 11.0828C11.007 11.1578 10.9053 11.2 10.7992 11.2H8.79922C8.69313 11.2 8.59139 11.1578 8.51638 11.0828C8.44136 11.0078 8.39922 10.9061 8.39922 10.8C8.39922 10.6939 8.44136 10.5921 8.51638 10.5171C8.59139 10.4421 8.69313 10.4 8.79922 10.4ZM8.39922 6.79998C8.39922 6.69389 8.44136 6.59215 8.51638 6.51713C8.59139 6.44212 8.69313 6.39998 8.79922 6.39998H10.7992C10.9053 6.39998 11.007 6.44212 11.0821 6.51713C11.1571 6.59215 11.1992 6.69389 11.1992 6.79998C11.1992 6.90606 11.1571 7.0078 11.0821 7.08282C11.007 7.15783 10.9053 7.19998 10.7992 7.19998H8.79922C8.69313 7.19998 8.59139 7.15783 8.51638 7.08282C8.44136 7.0078 8.39922 6.90606 8.39922 6.79998Z" fill="#B3BEC2"/>
</svg>
