<svg width="28" height="28" viewBox="0 0 28 28" fill="none" xmlns="http://www.w3.org/2000/svg">
<path d="M18.8483 5H9.69083C9.69083 5 8.54544 5 8.54544 6.15H19.9937C19.9937 5 18.8483 5 18.8483 5ZM22.2833 8.45C22.2833 7.3 21.1391 7.3 21.1391 7.3H7.40119C7.40119 7.3 6.25694 7.3 6.25694 8.45V9.6H22.2833V8.45ZM24.5718 9.6L23.8956 8.9192V10.75H4.64464V8.9192L3.96729 9.6C3.28994 10.2808 2.80464 10.4625 3.07719 11.9C3.34859 13.3329 4.66304 21.1874 4.85854 22.25C5.07244 23.4161 6.25809 23.4 6.25809 23.4H22.2845C22.2845 23.4 23.469 23.4161 23.684 22.25C23.8795 21.1874 25.1928 13.3329 25.4654 11.9C25.7356 10.4625 25.2503 10.2808 24.5718 9.6ZM18.8701 16.4965C18.8701 17.1336 18.3538 17.65 17.7167 17.65H10.8236C10.5177 17.65 10.2243 17.5285 10.008 17.3122C9.79166 17.0958 9.67014 16.8025 9.67014 16.4965V14.2H10.8201V16.5H17.7201V14.2H18.8701V16.4965Z" fill="#B3BEC2"/>
</svg>
