<svg width="28" height="28" viewBox="0 0 28 28" fill="none" xmlns="http://www.w3.org/2000/svg">
<path d="M11.8996 2.80005C11.4652 2.79982 11.0413 2.93435 10.6865 3.18509C10.3317 3.43583 10.0634 3.79044 9.91861 4.20005H7.69961C7.14265 4.20005 6.60851 4.4213 6.21468 4.81513C5.82086 5.20895 5.59961 5.74309 5.59961 6.30005V23.1001C5.59961 23.657 5.82086 24.1911 6.21468 24.585C6.60851 24.9788 7.14265 25.2001 7.69961 25.2001H20.2996C20.8566 25.2001 21.3907 24.9788 21.7845 24.585C22.1784 24.1911 22.3996 23.657 22.3996 23.1001V6.30005C22.3996 5.74309 22.1784 5.20895 21.7845 4.81513C21.3907 4.4213 20.8566 4.20005 20.2996 4.20005H18.0806C17.9358 3.79044 17.6675 3.43583 17.3127 3.18509C16.9579 2.93435 16.5341 2.79982 16.0996 2.80005H11.8996ZM11.1996 4.90005C11.1996 4.7144 11.2734 4.53635 11.4046 4.40507C11.5359 4.2738 11.714 4.20005 11.8996 4.20005H16.0996C16.2853 4.20005 16.4633 4.2738 16.5946 4.40507C16.7259 4.53635 16.7996 4.7144 16.7996 4.90005C16.7996 5.0857 16.7259 5.26375 16.5946 5.39502C16.4633 5.5263 16.2853 5.60005 16.0996 5.60005H11.8996C11.714 5.60005 11.5359 5.5263 11.4046 5.39502C11.2734 5.26375 11.1996 5.0857 11.1996 4.90005ZM13.0952 10.9956L10.6452 13.4456C10.5177 13.573 10.3459 13.6463 10.1657 13.6502C9.98552 13.6541 9.81075 13.5884 9.67781 13.4667L8.62781 12.5076C8.55646 12.4467 8.4981 12.372 8.45621 12.288C8.41432 12.204 8.38975 12.1124 8.38396 12.0187C8.37817 11.925 8.39128 11.8311 8.42251 11.7426C8.45373 11.6541 8.50245 11.5728 8.56574 11.5035C8.62904 11.4342 8.70563 11.3783 8.79096 11.3392C8.87628 11.3001 8.9686 11.2785 9.06242 11.2758C9.15625 11.2731 9.24966 11.2893 9.3371 11.3234C9.42454 11.3576 9.50422 11.4089 9.57141 11.4744L10.1272 11.9812L12.104 10.0044C12.1691 9.93937 12.2464 9.88774 12.3314 9.85252C12.4164 9.81729 12.5076 9.79916 12.5996 9.79916C12.6917 9.79916 12.7828 9.81729 12.8678 9.85252C12.9529 9.88774 13.0301 9.93937 13.0952 10.0044C13.1603 10.0695 13.2119 10.1468 13.2471 10.2318C13.2824 10.3169 13.3005 10.408 13.3005 10.5C13.3005 10.5921 13.2824 10.6832 13.2471 10.7683C13.2119 10.8533 13.1603 10.9306 13.0952 10.9956V10.9956ZM13.0952 17.0044C13.1604 17.0695 13.2121 17.1467 13.2474 17.2318C13.2827 17.3168 13.3009 17.408 13.3009 17.5C13.3009 17.5921 13.2827 17.6833 13.2474 17.7683C13.2121 17.8534 13.1604 17.9306 13.0952 17.9956L10.6452 20.4457C10.5177 20.573 10.3459 20.6463 10.1657 20.6502C9.98552 20.6541 9.81075 20.5884 9.67781 20.4667L8.62781 19.5076C8.49776 19.3808 8.42213 19.2084 8.41689 19.0268C8.41165 18.8452 8.47721 18.6687 8.59972 18.5345C8.72223 18.4004 8.89209 18.3191 9.07341 18.3079C9.25474 18.2967 9.43331 18.3564 9.57141 18.4745L10.1272 18.9826L12.104 17.0044C12.169 16.9393 12.2463 16.8875 12.3313 16.8523C12.4164 16.817 12.5075 16.7988 12.5996 16.7988C12.6917 16.7988 12.7829 16.817 12.8679 16.8523C12.9529 16.8875 13.0302 16.9393 13.0952 17.0044V17.0044ZM15.3996 18.2H18.8996C19.0853 18.2 19.2633 18.2738 19.3946 18.4051C19.5259 18.5364 19.5996 18.7144 19.5996 18.9C19.5996 19.0857 19.5259 19.2637 19.3946 19.395C19.2633 19.5263 19.0853 19.6 18.8996 19.6H15.3996C15.214 19.6 15.0359 19.5263 14.9046 19.395C14.7734 19.2637 14.6996 19.0857 14.6996 18.9C14.6996 18.7144 14.7734 18.5364 14.9046 18.4051C15.0359 18.2738 15.214 18.2 15.3996 18.2ZM14.6996 11.9C14.6996 11.7144 14.7734 11.5363 14.9046 11.4051C15.0359 11.2738 15.214 11.2 15.3996 11.2H18.8996C19.0853 11.2 19.2633 11.2738 19.3946 11.4051C19.5259 11.5363 19.5996 11.7144 19.5996 11.9C19.5996 12.0857 19.5259 12.2637 19.3946 12.395C19.2633 12.5263 19.0853 12.6 18.8996 12.6H15.3996C15.214 12.6 15.0359 12.5263 14.9046 12.395C14.7734 12.2637 14.6996 12.0857 14.6996 11.9Z" fill="white"/>
</svg>
