<svg width="28" height="28" viewBox="0 0 28 28" fill="none" xmlns="http://www.w3.org/2000/svg">
<path opacity="0.3" d="M22.4925 10.0333L21.6759 8.62163L20.1942 9.21663L18.9575 9.71829L17.8959 8.90163C17.4409 8.55163 16.9625 8.27163 16.4609 8.07329L15.2242 7.57163L15.0375 6.25329L14.8159 4.66663H13.1825L12.9609 6.24163L12.7742 7.55996L11.5375 8.07329C11.0592 8.27163 10.5809 8.55163 10.0792 8.92496L9.02919 9.71829L7.80419 9.22829L6.32253 8.62163L5.50586 10.0333L6.76586 11.0133L7.80419 11.83L7.64086 13.1483C7.60586 13.4983 7.58253 13.7666 7.58253 14C7.58253 14.2333 7.60586 14.5016 7.64086 14.8516L7.80419 16.17L6.76586 16.9866L5.50586 17.9666L6.32253 19.3783L7.80419 18.7833L9.04086 18.2816L10.1025 19.0983C10.5575 19.4483 11.0359 19.7283 11.5375 19.9266L12.7742 20.4283L12.9609 21.7466L13.1825 23.3333H14.8042L15.0259 21.7583L15.2125 20.44L16.4492 19.9383C16.9275 19.74 17.4059 19.46 17.9075 19.0866L18.9575 18.2933L20.1709 18.7833L21.6525 19.3783L22.4692 17.9666L21.2092 16.9866L20.1709 16.17L20.3342 14.8516C20.3809 14.49 20.3925 14.245 20.3925 14C20.3925 13.755 20.3692 13.4983 20.3342 13.1483L20.1709 11.83L21.2092 11.0133L22.4925 10.0333V10.0333ZM13.9992 18.6666C11.4209 18.6666 9.33253 16.5783 9.33253 14C9.33253 11.4216 11.4209 9.33329 13.9992 9.33329C16.5775 9.33329 18.6659 11.4216 18.6659 14C18.6659 16.5783 16.5775 18.6666 13.9992 18.6666Z" fill="#B3BEC2"/>
<path d="M22.6677 15.1434C22.7143 14.77 22.7493 14.3967 22.7493 14C22.7493 13.6034 22.7143 13.23 22.6677 12.8567L25.1293 10.9317C25.351 10.7567 25.4093 10.4417 25.2693 10.185L22.936 6.14837C22.831 5.96171 22.6327 5.85671 22.4227 5.85671C22.3527 5.85671 22.2827 5.86837 22.2243 5.89171L19.3193 7.05837C18.7127 6.59171 18.0593 6.20671 17.3477 5.91504L16.9043 2.82337C16.8693 2.54337 16.6243 2.33337 16.3327 2.33337H11.666C11.3743 2.33337 11.1293 2.54337 11.0943 2.82337L10.651 5.91504C9.93932 6.20671 9.28599 6.60337 8.67932 7.05837L5.77432 5.89171C5.70432 5.86837 5.63432 5.85671 5.56432 5.85671C5.36599 5.85671 5.16766 5.96171 5.06266 6.14837L2.72932 10.185C2.57766 10.4417 2.64766 10.7567 2.86932 10.9317L5.33099 12.8567C5.28432 13.23 5.24932 13.615 5.24932 14C5.24932 14.385 5.28432 14.77 5.33099 15.1434L2.86932 17.0684C2.64766 17.2434 2.58932 17.5584 2.72932 17.815L5.06266 21.8517C5.16766 22.0384 5.36599 22.1434 5.57599 22.1434C5.64599 22.1434 5.71599 22.1317 5.77432 22.1084L8.67932 20.9417C9.28599 21.4084 9.93932 21.7934 10.651 22.085L11.0943 25.1767C11.1293 25.4567 11.3743 25.6667 11.666 25.6667H16.3327C16.6243 25.6667 16.8693 25.4567 16.9043 25.1767L17.3477 22.085C18.0593 21.7934 18.7127 21.3967 19.3193 20.9417L22.2243 22.1084C22.2943 22.1317 22.3643 22.1434 22.4343 22.1434C22.6327 22.1434 22.831 22.0384 22.936 21.8517L25.2693 17.815C25.4093 17.5584 25.351 17.2434 25.1293 17.0684L22.6677 15.1434V15.1434ZM20.3577 13.1484C20.4043 13.51 20.416 13.755 20.416 14C20.416 14.245 20.3927 14.5017 20.3577 14.8517L20.1943 16.17L21.2327 16.9867L22.4927 17.9667L21.676 19.3784L20.1943 18.7834L18.981 18.2934L17.931 19.0867C17.4293 19.46 16.951 19.74 16.4727 19.9384L15.236 20.44L15.0493 21.7584L14.816 23.3334H13.1827L12.961 21.7584L12.7743 20.44L11.5377 19.9384C11.036 19.7284 10.5693 19.46 10.1027 19.11L9.04099 18.2934L7.80432 18.795L6.32266 19.39L5.50599 17.9784L6.76599 16.9984L7.80432 16.1817L7.64099 14.8634C7.60599 14.5017 7.58266 14.2334 7.58266 14C7.58266 13.7667 7.60599 13.4984 7.64099 13.1484L7.80432 11.83L6.76599 11.0134L5.50599 10.0334L6.32266 8.62171L7.80432 9.21671L9.01766 9.70671L10.0677 8.91337C10.5693 8.54004 11.0477 8.26004 11.526 8.06171L12.7627 7.56004L12.9493 6.24171L13.1827 4.66671H14.8043L15.026 6.24171L15.2127 7.56004L16.4493 8.06171C16.951 8.27171 17.4177 8.54004 17.8843 8.89004L18.946 9.70671L20.1827 9.20504L21.6643 8.61004L22.481 10.0217L21.2327 11.0134L20.1943 11.83L20.3577 13.1484ZM13.9993 9.33337C11.421 9.33337 9.33266 11.4217 9.33266 14C9.33266 16.5784 11.421 18.6667 13.9993 18.6667C16.5777 18.6667 18.666 16.5784 18.666 14C18.666 11.4217 16.5777 9.33337 13.9993 9.33337ZM13.9993 16.3334C12.716 16.3334 11.666 15.2834 11.666 14C11.666 12.7167 12.716 11.6667 13.9993 11.6667C15.2827 11.6667 16.3327 12.7167 16.3327 14C16.3327 15.2834 15.2827 16.3334 13.9993 16.3334Z" fill="#B3BEC2"/>
</svg>
